<svg xmlns="http://www.w3.org/2000/svg"><defs><font horiz-adv-x="2048"><font-face units-per-em="2048" ascent="1920" descent="-128"/><glyph horiz-adv-x="0" d="M0 0z"/><glyph horiz-adv-x="0" d="M0 0z"/><glyph/><glyph horiz-adv-x="0" d="M0 0z"/><glyph horiz-adv-x="1024" d="M0 0z"/><glyph unicode="," d="M-6 1914l2-392 4 4q224-2 436-60 212-60 394-166 178-108 332-260 150-154 258-334 104-184 166-396 54-216 58-440l388-2q4 280-74 544-68 266-204 490-128 224-320 412-184 190-412 320-220 134-488 206-260 74-540 74zm6-1086l4 4q190 0 366-72 172-72 308-208 134-136 206-312 72-174 72-368h392q0 182-50 358-48 174-134 324-88 146-212 272-124 124-272 212-148 86-322 136-174 46-358 48v-394zm4-682q0-112 80-192t192-80 192 80 80 192-80 192-192 80-192-80-80-192z"/><glyph unicode="." horiz-adv-x="2272" d="M78 228q0-26 10-51t28-42 42-28 52-11h1850q28 0 52 11t42 28 28 42 10 51v1322q0 28-10 52t-28 42-42 28-52 10h-1850q-28 0-52-10t-42-28-28-42-10-52v-1322zm132 94v852l506-344zm0 1012v216h1850v-214l-4 4-922-636zm94-1106l524 526 308-210 304 210 526-526h-1662zm1246 604l510 350v-860z"/><glyph unicode="1" d="M10 122h2l1190-250v2048l-1192-230v-1568zm330 762l2 4q0 162 76 262 76 102 200 100 116 2 190-96 70-92 72-254-2-162-74-262-78-98-198-100-118 0-192 96-78 96-76 250zm126 4l2 4q2-102 38-162 40-60 100-60 64 0 102 56 36 60 38 160-2 106-36 166-38 60-100 58-66 2-104-60-40-60-40-162zm798 584l2-404 2 4 136-86q10-4 14-2l606 404q-4 34-24 56-28 28-46 24zm2-1092l2 4 650-2q44 0 78 28 26 28 30 84l-4 736q-584-392-590-394-16-14-40 0l-122 88z"/><glyph unicode="2" d="M-2 1564l2 2q0-106 74-182 74-74 180-74 104 0 180 74 72 74 74 180-2 104-74 180-76 72-180 74-108-2-182-74-76-76-74-180zm760-8l2 2q0-104 74-182 74-72 180-74 106 2 180 74 74 76 74 180 0 106-76 180-74 74-180 74t-180-74-74-180zm2-668v2q2-104 74-180 76-72 180-74 108 0 180 74 76 74 76 180t-76 180q-74 74-180 74t-180-76q-74-74-74-180zm762 658l2 2q0-104 74-182 74-72 180-74 104 2 180 74 72 76 74 180-2 106-74 180-76 74-180 74-108 0-182-74-76-74-74-180zm2-668l2 2q2-104 74-180 76-72 180-74 106 0 180 74t74 180-74 180-180 74-182-76q-74-74-74-180zm4-666l2 2q0-106 74-182 74-74 180-74 104 0 180 74 72 74 74 180-2 104-74 180-76 72-180 74-108-2-182-74-76-76-74-180z"/><glyph unicode="3" d="M-14 792l14 16q0-140 70-260 68-120 188-190 116-68 258-68 112 0 218 48 98 48 176 134l110-166 108 170q66-88 176-140 98-48 222-50 134 0 258 68 112 70 188 190 62 118 70 258-8 182-116 326 32 116 90 168l-348-2-16 2q-2 14-26 32-8 16-66 48-42 28-116 54-58 18-184 40-108 12-258 16-106-4-210-12-90-14-162-28-58-20-118-38-44-24-82-42-20-24-48-38-12-20-26-28v-14l-360 2q56-50 94-186-100-140-104-310zm100-4h6q-4 174 122 294 116 124 292 122 166 2 292-122 116-120 120-294-4-170-122-294-126-118-294-120-176 0-294 120-126 122-122 294zm158-2l4 2q4-102 72-174 76-74 174-74 106 0 174 72 78 72 72 176 6 100-72 176-68 68-176 72-96-4-176-74-66-76-72-176zm74-6l6 2q-4 76 48 122 48 54 120 52 70 0 120-52 52-50 50-122 2-70-50-122-50-50-122-50-70 0-122 50-48 50-50 120zm86-4l2 4q0-34 24-58 24-26 58-26 36 0 58 24 26 26 26 58 0 36-26 60-24 24-58 24t-60-26q-24-24-24-60zm90 488q4 6 16 16 10 10 54 36 40 26 92 46 50 18 138 36 86 14 186 16l32-2q102 2 184-16 90-12 140-38 54-20 92-44 38-20 54-38l16-12q-8-2-22 2-14 0-56-2-40-4-82-12-40-12-92-38-54-30-98-70-44-44-86-116-42-76-68-168-26 92-68 168-42 70-88 114-46 38-96 70-50 24-94 36-46 6-82 12-36 2-56 2zm580-496h4q0 174 120 294 122 124 292 122 172 2 292-122 122-120 122-294 0-170-122-294-120-118-292-120-172 0-294 120-122 122-122 294zm162-2l4 2q0-102 72-174 74-74 174-74 106 0 174 72 76 72 74 176 0 100-74 176-72 68-174 72-104-4-176-74-74-76-74-176zm72-6l4 2q0 74 50 122 52 52 120 52 74 0 120-52 54-50 52-122 0-70-52-122-50-50-120-50-72 0-122 50-52 52-52 120zm86-2l2 4q0-36 24-58 24-28 58-26 36-2 58 24 26 24 26 58t-26 60q-24 22-58 24-34-2-60-26-24-26-24-60z"/><glyph unicode="4" d="M30-92h344l198 944q62 278 276 552 216 278 420 278 170 0 170-218 0-116-56-344l-84-382q-70-328-70-500 0-170 90-268 92-100 244-100 210 0 448 208l-64 108q-132-84-238-84-130 0-130 174 0 168 48 386l94 436q68 290 66 404 2 408-394 408-372 0-672-498h-36l96 464h-680l-36-154h32q254 0 256-176-2-64-22-166z"/><glyph unicode="5" d="M-14 476l14 16q0-80 58-140 56-54 138-56 70 0 126 46 52 46 66 116h284q16-134 112-226 104-92 236-92 140 0 236 92 104 92 112 226h292q6-70 66-116 48-46 126-46 74 0 138 56 50 58 58 136-8 84-58 138-64 60-138 58-80 0-126-48-62-46-66-116h-294q-2 110-82 194l250 244q50-40 128-36 64 6 122 56 48 58 56 138-8 82-58 138-64 56-138 56-88 0-138-58-58-50-56-122-14-72 34-128l-252-246q-74 64-186 76l4 416q64 14 116 66 40 56 46 126-6 82-58 138-62 58-138 58-86 0-138-58-64-56-58-138-6-72 46-126 40-54 116-66l-6-420q-100-10-188-76l-238 244q34 58 34 128-10 72-56 122-62 56-138 56-86 0-138-58-62-56-58-138-4-82 56-138 46-52 122-58 66-4 128 36l238-244q-66-84-82-194h-282q-18 70-66 116-60 46-126 46-86 0-138-56-64-58-58-138z"/><glyph unicode="6" d="M-14 760l14 6q4-28 22-50 22-22 54-30 32-6 62 2t52 32q4 2 8 12 6 8 8 14 8 6 24 8l728-12q8 2 10 10-6 26 0 36-2 8 0 8-4 2-10 2l-738-10q-6 0-12 10 0 30-32 54-26 24-72 24-30 0-64-16-26-16-44-44-10-28-10-56zm704 268l12 12q0-20 16-32 26-28 62-14 10 6 14 6-2 0 12-10l170-134q8-6 10 0 12 16 22 26 4 4 2 4 0 4-2 4-2 4-6 4-2 2-4 2l-4 2-166 118q-2 2-8 4-6 4-8 4-2 2-4 6-2 6 2 8v6q-2 26-20 38-18 16-42 16-34 0-50-32-10-18-8-38zm54-480l8 6q-4-36 28-58 28-22 66-16 24 8 44 30 12 26 12 52-6 8 4 8 20 16 98 56v12q-10 4-4 2-18 12-18 20-10 6-8 4-6 2-6-2l-90-52q-2-6-14-2-32 26-78 8-36-22-42-68zm240 200l10 2q-4-34 20-68 34-56 120-62l4 2h18-10q52 2 86 30 44 24 54 68 18 40 0 80-10 40-50 64-36 28-92 28-36-4-78-22-34-20-60-52-18-34-22-70zm56 370l12 12q12-50 68-68 4 0 8-12l-14-112q4-8 2-10 8-4 8-2 28 2 36 0 12-2 6 0 8 0 2 6 4 76-4 114 6 4 4 10 10 0 12 6 14-2 10 2 24 6 28 20 34 26 26 66 8 32-18 62-12 26-50 38-12 4-38 4-46-2-80-40-28-44-18-96zm212-510l8 4q-10-4 0-8l28-20q8-2 4-4 4-4 0-8v-8q0-8 4-22 14-26 36-26 22-2 36 12 16 14 16 36t-16 38q-16 12-38 10-20-8-36 12l-2 2q-2 0-4 2-4 4-8 4-6 0-10-6-6-8-18-18zm6 254l14 2v-4l2-4 4-2q0-2 4-4 6-10 14-18 0-4 2-4h2l4 2q0 2 4 2l238 156q8 0 16-6 46-26 80 6 32 18 30 52 4 28-20 56-18 20-54 24-34-4-60-28-20-30-16-62 4-12-6-12-86-54-254-152 0-6-4-4zm46-164l6 8q-6-4 6-8l474 10 8-4q6-10 6-14l4-12q8-18 24-30 30-24 70-18 34 4 56 30 24 26 22 60 2 34-22 62-20 24-56 32-4-2-18 0-30-4-56-20-22-20-32-48-2-12-12-10l-474 4q-4 2-2-18-2-4-4-24z"/><glyph unicode="7" d="M48 1712l30 22q-6-20 20-114 16-56 44-134 30-76 36-100 8-18 18-62 16-42 18-60 6-6 6-12 10-4 6-6 24-40 40-118 24-78 28-98 4-6 6-12 8-4 6-6 6-6 4-18 6-12 6-16 36-100 68-206 34-106 74-244 40-136 66-220 8-26 24-82t26-94q12-36 28-86 18-48 32-80 14-30 34-56 18-26 38-34 10-4 24-6 16 0 34 2 22 2 38 6 20 2 46 12 30 6 48 16 20 2 52 16 34 8 54 16l636 198q4 2 84 22 80 22 128 40 46 18 54 34 0 2 6 2 4 2 6 2v4h-4q2 4 6 4l6 2q16 20 18 56v20l2 16q0 24-10 50-10 34-14 46l4 10q-2 10-8 22-4 12-6 16-2 8-4 28-2 18-6 28l-4 12v2l-6 12q-6 18-6 14l-6 14q-6 18-8 12 0-2-8 12-10 16-12 8-2-4-14 6-10 14-16 2l-18 2v-2h-20l-20-4q0-4-24-8l-24-6q0-6-24-8l-26-8q-534-172-556-176-2-2-12-4-6-6-12-6-4-2-12-2-4 0-12 2l-240 764q-18 56-54 180-38 128-56 192-10 28-26 82-18 58-26 88-12 32-26 72-16 40-32 64-18 22-36 34-16 6-44 8-70-2-182-38-116-38-188-70-12-6-26-10-16-8-24-10l-16-8q-12-10-22-24-12-18-14-24z"/><glyph unicode="8" d="M8 914l12 12q-2-24 14-54 140-170 426-288-94-318 20-522 70-128 198-174 114-40 208 4 94 46 108 156 0 18 2 40l-2 384 2 2q0-2 54-14l-2-374q0-126 88-184 90-54 198-24 134 32 206 150 130 178 62 468-2 40-22 84 154 58 252 136 112 74 168 152 34 40 4 72-18 26-70 0 4-6-6-6 2-8-8-8 0-6-14-4l4 788q-4 88-50 140-54 62-124 58l-1440 4q-72-4-136-58-54-62-58-140l4-798-4 6q-6 4-10 6l-8 4q-30 20-52 12-24-6-24-30zm216-80v14l2 768q-2 106 32 146 30 40 126 40h1266q90 0 118-42 32-42 30-144l2-764q-50-26-100-48-52-20-92-34-42-12-92-22-54-8-84-12-32-4-80-6h-134q-48 2-52 2-70 2-98-22-30-28-32-76-26 14-68 56-10 4-12 10-34 30-104 30-6-4-52-4-52-4-68-4h-68q-54 0-84 4-32 2-82 10-54 6-92 20-42 10-88 32-52 18-94 46zm266 202v6q2-90 70-158 72-64 170-66 102 0 170 64 72 66 70 158 2 92-70 158-68 64-170 64-98 0-170-66-68-66-70-160zm562-2l6 4q0-92 70-162 70-64 170-66 98 2 170 66 68 68 70 160-2 94-72 158-72 66-170 66-102 0-172-66-72-66-72-160z"/><glyph unicode="9" d="M2 874l8 8v-8q2-6 2-8l4-4q2-4 6-6 4-4 6-4 2-2 8-4 4-2 6-2l894-418q72-34 142-2l898 420q12 4 20 10 16 12 16 22 0 14-16 24-4 4-16 10l-160 74q-30 14-70 14-36 0-70-16l-604-282q-72-34-140-2l-600 282q-72 32-146 0l-150-72q-2 0-10-4-8-2-10-4-4-2-8-6-6-4-8-10-2-4-2-12zm8-546l6 10q2-6 2-10 2-2 2-6 4-4 4-6 2-2 6-4t6-4q2 0 8-2 4-2 6-4l894-416q72-34 142-2l900 420q14 6 20 10 14 10 14 22 0 14-16 22-4 6-16 8l-160 76q-32 12-70 14-34-2-70-18l-604-282q-72-32-140-2l-600 282q-72 32-146 0l-150-72q-2 0-10-4-8-2-10-6-4 0-8-6-6-2-8-8-2-4-2-12zm6 1118l2 4q0-12 12-20 4-4 30-16l892-418q72-32 142 0l894 418q18 8 28 16 22 18 0 38-10 6-28 16l-892 414q-36 18-76 18-36 0-74-16l-890-416q-24-12-28-16-14-10-12-22z"/><glyph unicode=":" d="M0 80l422 58q132-112 294-174 164-62 342-62 202 0 382 78 184 78 316 212 132 132 210 318 78 182 78 386 0 200-78 386-78 182-210 318-132 130-316 212-182 74-382 78-202-4-384-78-182-82-314-212-132-138-210-318-78-188-78-386 0-220 88-412zm670 320h2v988l372-4q258 4 402-134 146-128 146-352 0-222-148-358-148-140-406-138zm264 244l2 4 110-2q126 2 200 64 78 64 78 180v2q0 116-78 180-76 64-200 64h-112v-492z"/><glyph unicode=";" d="M-26 1332l30 34q14-54 38-110 24-54 66-130 38-74 54-102 96-174 192-306 90-132 206-236 104-96 254-138 144-40 302-26 38 4 62 34 14 28 20 66-6 32 6 78 0 40 22 66 12 12 38 18 12 0 34-2 6-8 34-22 8-20 28-28 0-14 26-34 8-28 22-30 120-152 244-160 56 14 120 12 40-10 122-4 54-2 116 24 2 14 20 38-10 18-8 44-24 20-22 40-24 14-30 42-34 20-28 34-52 44-118 126-96 72-110 108-28 14-18 42-16 14 8 46 0 18 18 38-4 4 32 42 12 24 28 32 6 22 70 88 36 56 76 98 14 30 56 94 18 52 42 112-18 30-34 48-42 12-62 12-44-4-74-6-56-4-64 0-34-4-86 4-74 6-104-2-54-10-66-48-68-128-106-222-62-94-114-174-22-16-24-32-26-14-32-28-28-12-34-12-28 2-28 22-34 34-28 84-14 50 0 88-10 36 6 100 0 66 6 118-8 54-20 96-20 18-28 26-24 12-42 16-34 4-38 6-18 0-46 2h-40q-42-2-76-2-48 0-78-2-42 0-74-10-44-10-68-32-30-18-12-36 6-16 38-24 18-10 48-30 14-22 16-50 20-174-6-340-24-66-74-36-46 22-66 68-10 8-8 14-96 124-210 378-28 36-60 46-44 6-96 4-66-10-80-6-18-4-44 0-36 0-54 2-30-2-48-4-30-6-36-22-18-18-6-44z"/><glyph unicode="<" horiz-adv-x="2420" d="M62 210l792 674-792 688v-1362zm52-90q10-10 23-18t28-14 30-9 31-3h1966q16 0 32 3t30 9 27 14 25 18l-812 696-284-248-284 248zm0 1552l1096-940 1096 940q-12 10-25 18t-27 14-29 9-33 3h-1966q-16 0-31-3t-30-9-28-14-23-18zm1452-788l792-674v1362z"/><glyph unicode=">" d="M4 150q-2-56 20-106t58-87 87-59 105-22q52 0 94 16t78 45 60 68 36 83q54-14 113-13t114 16 107 44 94 73l456 454h-2l-200 200-456-454q-22-24-54-36t-63-12-63 12-54 38q-28 24-39 55t-12 63 12 63 37 55l16 16-202 200-14-14q-46-44-74-96t-44-108-15-114 13-114q-44-12-83-36t-66-59-44-79-15-92zm2 1492q0 56 21 106t58 87 87 59 106 22q52 0 96-18t81-49 60-72 33-91q54 14 112 13t112-16 105-44 93-73l18-16-204-202-14 16q-26 26-56 38t-63 12-63-13-56-37q-24-24-37-55t-12-63 12-63 39-55l36-40 418-414-204-202-452 454q-48 46-77 100t-44 113-12 119 17 118q-44 10-83 35t-67 60-45 79-15 92zm588-530l204-202 452 454q26 24 56 37t63 13 63-13 56-37q24-24 37-55t12-63-12-63-39-55l-12-16 198-202 18 16q44 46 74 99t44 111 14 118-20 118q54 6 96 30t75 60 50 82 19 98q-2 56-22 106t-58 87-87 59-107 22q-50 0-97-18t-83-50-60-75-30-93q-60 16-119 18t-118-13-112-44-101-75l-36-40zm440-890l16-14q44-46 100-76t114-44 120-12 118 20q12-48 35-88t59-69 80-46 96-17q54 0 105 22t87 59 58 87 20 106q2 52-17 98t-49 82-74 60-92 30q12 56 12 113t-16 113-44 107-74 95l-38 38-416 416-198-202 450-454q28-24 39-55t12-63-12-63-37-55q-26-26-56-38t-63-12-63 12-56 38l-14 14z"/><glyph unicode="A" d="M-8 484l8 8q0-124 50-242 52-114 132-198 84-80 190-132 110-48 220-50l822 2h9q117 0 229 50 114 48 200 134 84 82 138 200 50 114 52 242l-2 488v8q0 70-32 104-27 38-102 38h-8l-88 2h-7q-59 0-93 34-38 34-38 84v58q0 140-92 280-92 142-232 228-135 88-268 88h-6l-432 2q-134-2-256-50-120-52-206-138-86-88-138-208-50-122-50-254v-778zm524 22l6 2q0 46 34 80 36 30 82 32l740-2h5q43 0 79-32 30-30 34-80-4-46-34-82-40-30-84-32l-742 2h-5q-43 0-81 32-30 30-34 80zm0 742l4 4v9q0 44 36 75 27 36 73 36h9l366 4q52-4 84-36 38-40 36-86v-5q0-50-36-81-31-38-75-38h-9l-368-4q-52 4-84 36-38 40-36 86z"/><glyph unicode="B" d="M-2 1244q2-176 80-348 102-216 284-362 20-10 28-24 12-14 14-34t2-36q0-14-2-40-2-24-2-36-2-20-22-186-18-164-24-252 78 46 260 168 180 124 286 176 182-30 364-32l24 2q194 0 388 58 198 52 366 158v1406l-1798 2q-108-146-170-268-62-128-74-262l2 2q-4-46-6-92zm404-92q2 18 0 26l4 10q2 92 40 176 40 86 106 154 108 116 264 178 152 62 320 64h36q296 0 516-160 106-78 176-196 58-112 62-230l-4-16v-6q0-139-88-262-84-124-220-198-148-84-330-108-58-8-124-8-110 0-228 26-170 44-312 146-102 82-166 192-50 108-52 212z"/><glyph unicode="C" d="M-12 902q0-64 32-118l12 10q30-52 80-82-4-36-6-74 2-122 70-234 72-110 202-196 128-82 292-128 164-44 342-44h12q246 0 456 84 212 82 330 224 120 138 120 299v7q0 28-8 66 54 30 86 82 32 54 32 112v6q0 90-68 156-66 64-158 64h-2q-92 0-156-62-122 76-276 122-152 42-320 48l122 398 342-74v-8q0-72 54-128 54-50 130-54l2 4h10q70 0 120 54 52 50 52 128t-56 128q-52 54-125 54h-5l-6 2q-72-4-126-54-28-32-40-66l-370 82q-12 4-24-2-10-6-14-18l-136-448q-370-8-622-174-70 64-152 64h-2q-94 0-160-70-66-68-66-160zm594-94l4 2q0 58 36 94 42 42 92 42h2q52 0 92-40 38-40 40-96-2-54-38-92-38-38-89-38h-7q-52 0-94 38-36 36-38 90zm86-450l8 4q-2 14 8 22 8 10 22 10 12 0 22-8 76-78 282-78l-2-2 4-2q196 0 280 84 6 8 20 10 12-2 22-8 6-10 8-22-2-14-10-22-102-102-326-102l-2-4q-4 0-4-2h-4q-222 0-318 98-12 8-10 22zm512 448h2q2 56 36 92 40 40 89 40h9q50 0 92-40 34-38 38-92-2-56-38-94-44-40-94-40h-2q-54 0-94 38-38 40-38 96z"/><glyph unicode="D" d="M-4 892l4 4q0-208 80-398 82-188 218-326 138-138 326-218 190-82 398-82t398 80q188 82 326 218 136 138 218 326 80 190 80 398t-80 398q-82 188-220 326-136 136-326 218-190 80-398 80t-398-80q-188-82-326-220-138-136-218-326-82-190-82-398zm142-8l6 8v24l28 2q15-1 33-1t39 1q62 0 192 10 126 8 292 36 158 30 312 72 40-80 70-148-16 0-34-12-110-30-208-90-102-50-174-118-78-58-134-120-62-54-104-118-46-54-62-86-20-22-30-44-108 120-166 268-60 152-60 316zm14 176l4 4q42 200 170 362 126 160 312 248 180-254 324-506-184-50-384-76-202-28-286-28-68-4-110-4h-30zm314-876l6 6q6 14 16 32 10 16 40 60 30 40 64 82 34 38 92 94 56 50 122 100 62 42 156 94 88 42 192 82-2-6 2 0 0-4 2 0 132-350 186-662-160-72-333-72h-15q-298 0-530 184zm326 1538h2q106 26 204 26 168 0 312-58 154-58 266-164-8-20-38-44-16-26-78-76-48-50-144-102-84-54-198-94-148 280-326 512zm394-654l4 10q86 38 172 84 78 48 134 86 46 40 94 78 38 44 60 60 10 22 26 32 188-234 196-546-26 8-48 8-30 10-94 12-59 13-111 13-13 0-25-1-34 6-70 6-22 0-44-2l-48 6q-88-8-174-12l-14 40q-20 40-58 126zm124-304q88 8 172 12l10-4h14q183 0 350-52-32-178-128-334-102-150-246-252-54 294-170 622z"/><glyph unicode="E" d="M-10 842l4-282 6 12q0-124 62-230 60-104 166-166 104-62 230-62 186 0 320 132 132 130 134 318l2 652q-2 44 32 76 28 30 76 30 40 0 76-32 26-32 32-78l-6-126 146-64 202 60 6 146q-10 118-66 222-68 98-166 160-110 56-226 60-190-4-318-128-138-132-138-312l-6-666v-8q0-36-32-68-28-28-76-32-42 2-78 30-28 34-32 76l4 282zm1130-288h2q4-120 62-228 64-102 168-166 106-58 228-60 124 2 230 62 104 62 166 166 60 106 62 230l-2 284h-348l-2-294q2-44-32-76-30-32-76-32-44 0-78 32-28 30-30 76v286l-210-60-140 62v-282z"/><glyph unicode="F" d="M0 526h532v982h-204v-286h-328v-696zm204 162v370l122-2v-366zm404 614h2l204 2v202l-206 2v-206zm2-776h2l204-2v698l-206-2v-694zm284-246l534-2-2 944-530-2-2-694 328-2v-80l-328-2v-162zm202 406h2v372l122-4v-364zm408-406h2l532-4v946l-532-4v-692l326-4v-78l-328-4v-160zm202 404h2v374l122-6v-362z"/><glyph unicode="G" d="M116 714q0-68 12-136v2q28-172 122-318 320 820 646 1362-438-184-596-386-114-142-158-314-26-106-26-210zm272-638l12 8q16-16 36-32 18-16 30-22 6-8 18-14 0-2 4-4 2-2 4-2 178-118 388-138 38-2 76-2 168 0 328 66 194 84 330 252 66 88 120 224 52 138 86 288 28 152 54 314 18 164 30 308 6 148 12 262 2 120 4 184l-2 74q-2 28-32 54-20 14-52 18l-6-4q-70-10-176-42-676-644-1264-1792z"/><glyph unicode="H" d="M-8 1532l2-1266 6 10h610q96 0 164 18 80 20 142 64t100 112q34 70 36 164-2 116-58 200-58 82-172 116 80 38 126 104 40 60 42 158-2 88-28 148-32 56-82 96-72 42-128 58-106 18-164 22zm260-512l2-2 4 292 266-6q11 2 22 2 25 0 48-10 34 0 60-24 32-10 42-42 17-22 17-59 0-7-1-15v-5q0-66-48-103-38-26-122-30zm6-554l2 352 310-4h16q84 0 126-38 54-37 54-124v-12q1-8 1-16 0-38-17-68-14-30-46-52-22-14-64-26-40-8-78-12l-304 4v-4zm856 236l6 8q2-104 32-194 34-84 92-152 64-62 146-98 88-32 194-34 148 0 264 74 116 76 162 238l-220 2q-8-30-22-46-16-20-44-40-59-40-126-40h-14q-104 0-154 54-30 24-44 78-18 42-18 87v9l656-2q3 16 3 32 0 8-1 16v14q0 69-18 140-24 100-80 174-52 74-142 120-86 42-204 44-104-2-190-38-82-38-148-102-60-66-96-152-32-94-34-192zm194 590l2 2 510 2v120l-512 2v-126zm48-496l8 6q0 16 12 58 6 30 32 62 20 24 62 50 38 16 98 20 96-4 142-48 46-58 58-144z"/><glyph unicode="I" d="M0-128h1024v1024h-1024v-1024zm1024 1024h1024v1024h-1024v-1024z"/><glyph unicode="J" d="M-12 522q0-54 12-104l12 8h970v584h122q176-10 302-66 200-88 252-286 4-30 6-30h-340v262q0 22-22 26-10 2-62 12-54 10-84 14-20 2-56 2-38 2-42 2v-524l970-2q2 18 4 44 4 26 4 42v18q0 154-114 294-128 152-354 244-248 100-546 102h-50v190q-118-12-266-26v-174q0-22-20-24-216-48-384-146-154-96-234-214-80-122-80-248zm376 98h2q4 112 112 220 102 110 226 124l-2-344h-338z"/><glyph unicode="K" d="M170-128h752v436l-204 142 30 50 174-122-2 354 206-2-2-226 172 88 28-52-200-108v-156l322 158 24-48-346-180-2-334 754-4-856 2052z"/><glyph unicode="L" d="M74 1806l2-1830 2 8q0-86 60-108 12-4 24-4 32 0 70 22l1246 690 426 228q62 34 64 84-2 52-64 84l-428 238-1244 680q-25 15-53 15-6 0-13-1l-30 4q-60-38-62-110z"/><glyph unicode="M" d="M266 320l20 16q0-34 38-36 46 1 73 1t35-1q138-6 164-12 162-18 312-132 96-70 144-106 170-112 308-158 70-20 122-22 16 2 28 2 114 16 180 124 62 104 62 228 0 12-6 98-2 0-6-4-4 0-6-4-2 0-4-2-46-32-102-48-50-12-108-14-62 2-134 14-80 20-192 78-54 32-190 110-130 82-244 92-20 4-56 4-2 28 2 42t20 32l886 1022q10 14 16 36 4 48 20 160 0 32-30 32-6 0-6-2h-6q-8-2-6-2-222-42-414-46h-32q-162 0-286 22-84 18-148 50-12 10-27 10h-7q-15 0-32-22-50-76-80-126-28-56-38-134 2-6 0-14 0-32 10-52 14-22 52-44 48-22 118-34 42-2 88-4 84 0 186 14l92 16q0-2-6-8-2-6-6-8l-780-922q-20-22-20-50-4-38-4-102v-94z"/><glyph unicode="N" d="M-24 1480l24 18 8-4q44-18 94-68 56-50 86-108 102-192 252-566 158-374 230-536h94l292 576 250-576 80-2 522 1188q26 56 82 80 24 10 52 14l-6 66-408 4-4-72q116-22 138-90l-368-860q-108 214-202 454 2 16 38 82 22 64 42 94 6 28 38 80 16 48 48 92 12 36 48 78 34 58 160 70l-12 64h-426l-12-68q34 0 38-2 24 0 36-6 32-4 34-14 20-8 18-24 14-16 2-38-12-46-40-94-18-48-54-110-22-60-44-92l-132 308q-8 20 4 32 0 14 22 20 8 8 30 12 6 2 34 6l-10 64-482 4-10-70q52 0 68-4 28 0 56-14 40-10 48-36 58-94 130-278 84-180 112-248l-218-414-384 872q0 16-4 28 2 32 28 54 44 28 104 38l4 68-524 2-2-4z"/><glyph unicode="O" d="M136 822l14 8q0-246 96-472 98-226 270-388 120-98 232-98 42 0 122 26 148 58 190 58 68 0 150-42 104-38 178-38 120 0 190 50 94 66 180 202 92 136 128 266-124 32-206 162-76 126-78 276 2 74 28 156 30 82 86 150 56 66 124 88-36 70-96 128-122 110-294 110-56 0-250-74-66-28-148-28t-166 48q-98 52-219 52h-17q-108 0-206-54-96-52-166-144-64-86-104-204-36-114-38-238zm862 628h4q168 0 296 138 116 136 116 324-176-30-294-158-122-152-122-304z"/><glyph unicode="P" d="M-12 10l12 8q8 6 14 12l450 450q12 14 12 28v170q0 110-2 198 0 90 2 170 2 92 14 164 30 164 178 210 46 12 62 14 92 0 282 6l4-2v-336q10-18 20-26 14-8 30 4l814 816q2 0 2 4 4 4 6 8 2 0 4 2l-1168-2h-21q-101 0-181-18-356-72-472-404-60-162-60-382 0-178-2-538v-556zm146-146l2-2 1164-2q110 2 204 20 344 74 460 388 64 161 64 366v24q1 91 1 226t-1 314q1 181 1 316t-1 224l2 18h-2l-2 2q-4 0-4 2-2-4-2-6-4-4-4-6l-4-4-450-450q-10-10-12-30l2-272v-154q0-120-2-122 0-76-16-160-32-152-164-200-50-16-96-22-86-2-260-6l-10 2v328q0 24-18 34-18 6-38-12 0-2-4-2l-2-4-596-598z"/><glyph unicode="Q" d="M78 558q-2-16 14-24l20 16q12-14 38-32 2-2 10-6 4-2 24-18l36-36q14-20 40-56 18-36 38-80v-10h2l8-22q14-24 20-34 12-10 32-36 24-28 44-38 24-10 60-32 38-20 76-20 30-4 68-4h26q52 0 114 14 0-228 2-230 155-40 318-40h30q152 0 318 40-2 2-2 35t2 97q-1 65-1 123.5t1 110.5q-2 172-92 248 68 12 128 20 58 16 122 36 66 28 114 56 54 38 98 82 50 58 78 114 34 74 50 154 19 85 19 168 0 15-1 30v12q0 212-138 350 12 26 14 46 10 32 12 74 4 22 2 34v16q0 31-6 60-8 66-36 126-2 6-14 2l-6 6q-14-6-34-2-34-8-72-14-40-18-104-44-68-38-138-80-164 38-338 44-184-8-338-44-210 134-338 140l-6-6-26 2q-26-70-34-128-8-44-8-74v-36q6-50 12-74 6-30 14-46-138-156-138-362 0-112 18-198 18-94 50-154 32-68 80-116 46-56 98-84 48-38 116-58 60-28 122-36 56-16 128-20-72-66-86-180-30-18-60-22-32-14-76-14l-24-4q-32 4-66 8-40 14-88 44-44 40-80 92 0 12-8 12-4 18-26 30-18 32-42 40-20 26-58 32-26 19-56 19-8 0-16-1l-6 8-2-8-14 6q-18-8-18-4-6-10-14-8-8-14-6-12z"/><glyph unicode="R" d="M360 888l6 8q0-208 80-398 80-188 218-326 134-138 326-218 186-82 398-82 78 0 146 10l-4 142q-51-12-124-12h-32q-171 0-334 70-158 68-282 188-114 116-188 282-66 160-70 344 2 176 68 344 72 158 188 282 120 112 282 188 164 64 344 70 84-6 146-12v134q-44 12-97 12-24 0-49-2-17 1-35 1-189 0-363-81-188-74-326-220-136-128-218-326-80-182-80-398zm298-12l2 20q0-204 96-362 98-174 262-264 159-98 341-98h21q20-1 38-1 62 0 108 15l2 202q-66-14-146-22-142 6-260 68-122 76-190 188-70 123-70 253v15q0 141 70 252 66 124 188 188 110 70 245 70h27q71 0 134-22l-4 210q-56 12-146 14l-4-2q-150 0-278-60-136-56-228-156-98-94-152-230-56-122-56-260v-18zm424-4l8 8q4-150 100-242 106-92 250-92 148 0 224 84l-124 136q-44-48-92-48h-10q-73 0-108 44-44 39-44 105v22q0 61 40 103 38 40 114 42 56-2 96-48l124 132q-76 86-226 86-144 0-250-92-96-92-102-240z"/><glyph unicode="S" d="M-12 1166l2-360h370v-900h358v900h538v-900h358v900h358v360h-358v180q0 76 38 130t84 54h304v356h-304q-132 0-244-72-110-72-176-196-64-124-64-272v-180h-540v180q0 76 38 130t86 54h302l2 356h-308q-128 0-242-72-110-72-176-196-64-124-66-272l2-180h-362z"/><glyph unicode="T" d="M458 592l28 18q0-60 42-102t102-42q38 0 70 18l250-180v-432h140v142l244 176q34-20 76-22 58 0 102 42 40 42 42 102-2 60-42 102-44 42-102 42-62 0-104-44-42-40-42-97v-5q-2-12 0-18l-178-128v430l244 176q34-20 76-22 58 0 102 42 40 42 42 102-2 60-42 102-44 42-102 42-62 0-104-44-42-40-42-97v-5q-2-12 0-18l-178-128v402l246 178q36-20 74-22 60 2 102 42 42 44 42 102 0 60-42 102t-102 42-104-42q-42-42-42-102 0-8 2-20l-178-130v612h-142v-322l-180 128q2 14 2 26 0 62-42 102-42 44-102 44t-104-44q-42-42-42-102t42-102 102-42q36 0 68 16l250-182v-404l-180 130q2 16 2 24 0 60-42 102-40 42-97 42h-10q-57 0-99-42t-42-104q0-58 42-102 42-40 102-42 36 0 70 18l248-180 2-432-182 130q4 16 2 24v5q0 57-42 97-40 42-102 42-58 0-104-44-40-42-42-102z"/><glyph unicode="U" d="M-8 942l8 10q0-124 32-242 34-118 92-218 62-100 146-184 86-84 188-142 102-60 222-92 122-32 246-32 220 0 410 92l708-204-234 728q50 136 50 270v38q0 178-74 334-70 172-198 290-120 124-298 192-164 72-352 72h-10q-186 0-364-72-168-72-298-194-120-122-200-292-70-168-74-354zm296-6l8 6v15q0 160 84 295 82 142 230 224 141 82 310 82h16q164 0 308-82 142-82 230-226 80-140 84-310-4-110-42-218l114-328 4-2 6-28 44-110-152 40-316 98q-144-68-294-72-176 4-318 82-150 88-232 224-84 142-84 296v14z"/><glyph unicode="V" d="M92 1704l4-1016 6 2q0-166 64-318 66-152 174-262 112-110 262-174 152-66 318-66h204q166 0 318 60 152 62 262 162 110 106 174 244 64 142 64 289v19q0 206-82 374-80 182-224 278-131 103-285 103-11 0-23-1l-408 8q-86-8-144-60-62-68-62-144 0-94 58-146 54-61 127-61 9 0 17 1l408-8q5 1 10 1 70 0 128-107 64-93 64-235v-26q0-135-120-243-116-98-290-106l-200 8h-20q-161 0-270 120-120 108-120 277v11l-4 1016v11q0 84-60 133-50 61-126 61-9 0-18-1-9 1-17 1-72 0-129-61-56-52-60-144z"/><glyph unicode="W" d="M66 224q-1-2-1-4 0-5 3-12l70 58q10-22 40-24 28-2 50 10 22 10 36 32 14 18 22 38 6 12 14 40l6 24q16 40 80 164 64 112 76 126 4-2 50 46 44 36 72 64 8 2 32 28 22 12 38 30 14 4 34 22 18 2 32 10 34-8 80-36 40-44 46-68-2-14 0-12-2-54-34-118-8-30-6-28 0-14 8-30 0-10 8-32 8-36 18-56 6-34 18-56 10-40 18-52 8-28 12-24 32-21 65-21l15 1 10-6q46 10 46 28 2 28-26 40-26 28-50 30-30 20-30 28 0 12-4 20l-10 44v-6l-8 38q20 12 46 48 26 20 44 46l14 12q16-2 26-8 4-80 54-294 6-12 6-40 4-18 4-40 0-12 2-52 0-28 2-54v-48l-2-96q-4-90-4-102 0-28 30-58 30-16 64-22 30 6 60 16 24 20 30 40 0 20-6 32-10 20-18 24l-12 12q-28 124-30 210 2 208 10 230 16 30 28 90 18 50 22 90l10 34q14 2 46 0 24 2 94 10 64 10 106 28 10-44 10-104v-32q0-44-6-82-4-54-16-108-8-56-16-86-4-30-12-46-4-22-6-54l2-14q0-42 12-68 6-24 40-40 26-14 54-14 18 0 52 18 26 20 32 36 0 14-10 30-14 22-30 42l-20 24q-10 14-8 40v11q0 32 10 73 4 44 30 106 18 72 34 92 42 86 44 148 0 14-2 20 28 32 54 98 26 72 30 132l-2 12v6q0 57-32 184-32 142-46 174-8 24-4 44 10 16 20 44 16 20 24 74 11 31 11 66 0 10-1 20l4 12q8 10 24 28 4 18 16 34l-4 12q8 0 4-8l12-10-4-2 14-12q6-14 8 0 8 16 12 44-4 8-2 18-10 40-16 68-14 28-22 52-34 52-88 52h-10q-46 30-112 46-54 12-94 14l-2-2h-42q-44 6-94 8-48-2-92-10-34-14-52-22l-10-14-14 2q-30-2-64-16-26-4-66-28-32-26-40-64 0-48-2-78 0-76 14-78 24-6 40 26 2-22 10-38 8-18 16-24l6-8q-10-80-14-158-118-6-218-22-96-10-152-24-50-10-90-24-34-8-50-16-12-4-16-4-40 18-76 52-32 36-56 76-18 40-32 76-10 34-16 64-6 58-18 60v-2q-6 0-8-16-2-28-2-60 0-34 4-72 8-62 26-104 14-38 38-72 18-30 36-46 10-10 20-16 4-6 4-12-4 0-14-12-14-8-34-38-24-24-60-96-38-68-62-154-52-158-94-398-4-6-14-34-16-22-34-66-22-38-34-72-90-58-88-102z"/><glyph unicode="X" d="M-10 318l10 6 114-46q32-144 146-238 116-94 264-94 162 0 282 110 118 108 134 268l538 394q152 0 282 76 128 74 204 204 74 128 76 282-2 152-76 282-76 128-204 204-132 74-284 76-154-2-280-74-132-76-206-204-78-130-78-280l-352-504q-28 2-44 2-116 0-214-60l-312 126v-530zm246-106l6 2 152-60q46-20 90-20l96 20q92 40 130 134 18 46 18 90 0 48-20 96-40 94-136 132l-128 52q32 8 66 8 126 0 220-90 86-90 90-220-4-128-90-218-94-90-220-90-92 0-160 44-78 44-114 120zm848 1056l2 2q4 158 110 266 114 112 266 112 160 0 266-112 110-105 110-251v-30q0-146-110-253-106-110-268-110-150 0-266 110-104 110-110 266zm82-2v2-15q0-115 88-199 82-86 214-88 116 0 214 88 78 88 88 212-10 126-88 212-96 88-209 88h-11q-130 0-208-88-89-78-89-189 0-11 1-23z"/><glyph unicode="Y" d="M-4 886l4 8q0-176 58-340 58-162 166-298-4 10-6 22-6 18-6 66l-2 18q2 42 8 98 12 54 42 154 36 90 90 196 58 98 158 238 106 132 238 278-128 78-254 148-114 62-174 92l-46 18q-138-132-204-320-72-160-72-349v-29zm278-698q148-156 334-232 180-85 371-85 16 0 33 1 18-1 35-1 200 0 371 85 198 76 334 234 4 0-8 26 0 6-28 72-20 44-56 112-28 46-92 144-56 74-134 170-68 72-184 188-108 88-242 198-112-100-220-184-98-110-176-182-68-100-132-172-56-98-98-152-32-80-62-118-22-66-38-82zm66 1458l10 4q6 20 28 14 14 19 66 19 9 0 20-1 19 12 41 12 16 0 33-6 11 6 25 6 17 0 37-10 6 1 13 1 66 0 171-53 108-32 226-130l-2 14q84 46 164 100 82 26 146 58 64 0 122 24 30-14 58 2 20-16 42-4 27-14 52-14 10 0 20 2 26-24 44-16l12-22q-134 132-308 180-140 67-294 67-31 0-62-3-31 3-62 3-153 0-296-67-168-48-306-180zm930-336l4 6q106-128 194-220 84-122 142-196 52-104 96-170 38-98 62-146 16-80 32-120 6-72 12-96l-6-30q6-14-2-52 4-12-6-42l2 2q100 118 166 296 50 148 58 338-8 186-72 378-80 166-202 318-188-92-480-266z"/><glyph unicode="Z" d="M-2 828h2l4-676 838-110v786h-844zm0 102h842v820l-840-120zm922-900l1124-154-2 952h-1120zm0 900h1122v986l-1122-152v-834z"/><glyph unicode="a" d="M-14 176l14 20q50-6 100-6 292 0 522 180-138 2-244 84-110 80-148 208 33-8 65-8h25q49 0 96 14-144 28-242 144-94 112-96 266l2 2q88-46 190-52-86 58-138 148-50 92-50 198 0 114 56 210 158-192 382-310 224-114 482-130-12 50-12 94 0 174 122 296 124 122 296 122 184 0 306-132 142 26 264 100-44-152-184-234 126 14 240 66-82-128-210-216 4-38 2-54v-16q0-114-26-226-22-122-76-238-50-120-124-224-72-108-174-196-100-92-220-156-116-68-266-104-146-38-310-38-346 0-644 188z"/><glyph unicode="b" d="M524 772l2 4v346h254v296q0 88 30 168 28 76 88 140 56 62 156 98 94 36 222 36 58 0 122-4 58-4 90-6l28-4-6-322h-220q-90 0-116-36-30-36-30-107v-9l-2-254h378l-18-346h-358l-2-960h-364l-2 960h-252z"/><glyph unicode="c" d="M-14 272l14 16q0-132 122-228 120-102 364-104 294 4 446 138 148 127 148 289v17q0 114-54 184-54 74-130 132l-76 68q-18 10-36 40-22 18-22 60 0 32 20 66 22 26 38 48l68 54q30 38 54 66 54 84 54 200 0 76-16 118-20 62-42 88-22 42-52 64l-14 20v-8l-12 20q-14 6-12 8 2-12-12 2l144-4 144 84-466-2q-102 0-198-20-112-26-206-104-146-140-146-310 0-144 102-250 96-114 284-116 28 0 74 4l-18-40q-4-20-8-50 2-52 22-88 22-40 44-72-66 0-206-20-118-22-236-86-96-60-140-140-36-82-40-144zm192 42l10 6v16q0 54 24 90 18 44 54 70 30 30 64 42l46 22q76 20 146 32 50 2 74 4l20-2q18 2 50-2 128-90 190-152 54-64 58-156-4-106-84-178-92-70-252-72-188 4-288 80-112 79-112 192v8zm112 1058v12l4 4v13q0 86 50 149 55 76 149 76h15q63 0 120-42 46-38 86-110 64-136 70-278-6-22-6-78-14-44-38-90-66-60-154-66-78 2-130 42-58 46-92 106-74 133-74 250v12zm826-214l2 8 4 138 384 4 4 384 118 4 4-394 384 4 4-146-392 2 2-392h-126l2 388h-390z"/><glyph unicode="d" d="M188 1082l16 20q0 106 32 210 34 104 106 204 72 98 172 174 104 78 244 122 144 42 312 44 168-2 314-58 142-62 242-156 96-98 152-222 54-130 54-260 0-364-184-598-180-236-467-236h-13q-93 0-172 44-84 42-118 108-76-308-84-334-38-148-174-336l-82-4q-12 106-12 190 0 126 22 216l156 664q-38 76-40 194 2 130 68 222 70 88 166 88 80 0 120-52 42-52 42-130 0-54-18-120-20-78-48-164-22-68-42-148-6-26-6-50 0-64 42-114 60-70 154-70 172 0 278 188 108 185 108 448v16q0 200-134 330-132 124-372 128-266-4-432-170-164-176-166-412 2-144 80-240 20-26 20-48 0-12-2-18-8-34-24-98-6-26-24-30-16-12-38-2-122 48-186 174-62 124-62 286z"/><glyph unicode="e" d="M-8 830l8 8q0 100 70 168l780 782q70 68 168 70 100-2 168-70l354-354-532-528-246 246q-54 54-124 54h-20q-73 0-122-54l-162-156q-52-58-54-132 0-82 54-132l540-546q36-34 88-50l6-2 38-4q74 4 132 54l820 826 6-6q68-68 70-170-2-98-70-170l-782-780q-66-70-165-70h-10q-95 0-165 70l-780 778q-70 70-70 163v5zm394 24l6 6q2 24 18 48l162 154q16 24 48 18 24 6 48-18l328-330 770 758q10 21 37 21 4 0 9-1h4q20 0 42-20l154-158q21-19 21-41 0-4-1-7 1-4 1-8 0-24-21-38l-966-974q-18-12-48-14l-4 6 2-2q-4 2-4-2-6 0-6-2-26 4-40 16l-540 542q-20 18-20 46z"/><glyph unicode="f" d="M-12 1370l12 112q10 4 84 4 70 0 170-2 30-2 66-2 66 0 144 2 62 2 156 2 60 0 134-2 182-2 214-6l-10-72q-20-4-146-14-128-8-156-14 80-118 244-330 162-212 186-246 12 20 112 98 96 80 188 158 84 82 94 116-46 8-138 20-106 14-120 14l-24 92q26 4 96 4 80 0 184-2 112-2 150-2 332 0 410-6l-60-88q-42-6-234-48-28-6-162-106-132-100-264-218-132-116-148-160-10-50-10-126l-4-76q0-40 22-186 16-4 150-4 136 0 154-4l-2-96q-46 2-504 2-32 0-212-6-132-2-190-2h-44l12 90h76q78 0 128 8 60 6 74 26 8 4 8 8 4 4 4 12 4 6 2 14 2 4 2 22v28l-2 34v110q0 78-6 130-16 40-248 328-234 282-310 344-18 2-140 20-120 10-142 20z"/><glyph unicode="g" d="M0 1298l14 6q0-152 76-284-18-90-20-192 2-194 76-376 78-176 204-306 132-128 306-206 182-74 374-76 90 0 174 16 128-66 262-66 154 0 278 74 134 74 202 204 75 115 75 253 0 13-1 27 1 14 1 27 0 112-59 221 24 74 24 160 0 22-2 46 1 19 1 38 0 134-49 264-40 146-138 264-80 118-208 208-110 86-264 138-140 44-304 48-76-4-166-14-126 80-296 84-106-4-218-44-94-48-178-120-66-78-120-178-36-108-44-216zm422-766l30 14q-1 6-1 13 0 47 41 77 30 38 94 38h6q44 0 84-30 28-30 54-82 20-58 54-98 26-40 80-64 44-24 138-24 116 0 192 50 66 50 70 120-4 58-38 92-42 36-102 56-74 22-178 44-148 30-252 76-108 42-166 120-62 74-62 179v25q0 101 64 182 60 82 186 128 116 44 282 44 128 0 224-30 94-30 158-80 60-50 92-104 28-56 30-110-2-54-38-94-42-40-100-40-56 0-82 24-28 24-58 74-36 70-86 106-50 38-162 38-104 0-166-42-62-38-60-92-2-32 18-56 20-26 56-44 34-18 78-30 86-22 132-32 114-26 212-56 96-34 164-76 64-44 106-114 36-72 38-170-2-120-68-214-70-96-196-148-130-54-300-54-212 0-346 72-100 52-158 140-64 88-64 172z"/><glyph unicode="h" d="M184 540q2 8 0 16l10 4v6l30 348q0 36 46 62 14 8 38 6 18-2 38-8l14-6 438-218q2-4 18-12 4-6 28-28 10-22 18-46-8-24-8-42-14-16-12-22-14-4-20-12-22-8-16-8l-514-112q0-4-20-8-6-2-40 0-16 2-34 18 2 8-8 18 2 12-4 24 2 10-2 20zm210 1076v8l10 8q0 14 8 22 6 16 24 26 10 12 26 16l4 4 410 150q-4 0 14 4 4 4 18 4h-6q14 0 22-4 26-6 38-18 26-10 28-38 20-26 14-48l12-22-4-692q8-4 0-10 6-6-6-20 2-16-12-28 0-12-20-24-6-12-28-16-18-6-48 2-18 6-36 18l-4 8-426 572q4 0-2 2 0 4-8 10-4 8-10 16-4 8-10 18-2 12-6 20 0 8-2 12zm108-1648l4 8q-2 2-2 12 0 8 4 26 8 18 16 38l10 8 338 380q2-6 6 4 4-4 16 10 10 0 22 10 8-4 26 4 12-4 26-6 14-14 28-26 6-24 12-30l-2-18-4-500q-4-8 0-18-2-22-8-38-12-26-28-26-13-7-24-7-4 0-8 1-11-2-18.5-2t-11.5 2h-14l-338 108q-40 16-50 60zm648 816l6 8q4 20 4 30l10 14 270 430q8 6 8 14 12 10 26 24 22 12 34 12h8q16-2 34-12 12-8 20-18l2-8 234-274q0-6 4-14 0-6 6-30 4-22-2-36-4-16-22-32-20-16-36-24l-16-6-486-142q-8-2-20-2-12-2-38 4-26 8-36 24-10 22-10 38zm12-308q-1 0-1 1.5t1 4.5l6 4q0 24 16 42 14 12 34 18 14 2 24 2 4 0 8-2l12-2 488-156 8-2q0-2 16-6 8-4 22-10 4-6 16-18 0-10 6-22-6-16-6-34-12-16-12-26l-10-10-202-294q-40-32-74-32-20 0-36 14-24 14-32 30l-14 12-258 436q-6 4-6 18-6 6-6 23v9z"/><glyph unicode="i" d="M304 712l4 14q0-204 52-376 52-170 142-288 90-114 216-182 124-64 272-66h2q138 0 272 60 140 62 240 160 106 100 166 230 66 128 66 255v7l2 8q-2 114-24 208-28 102-66 168-40 70-104 130-66 66-122 100-58 44-138 86 10-60 12-128-2-14-2-38-8-74-30-140-26-54-66-108-42-42-94-72-56-18-116-30-18 2-30-2-50 2-100 14 60 108 98 194 32 94 42 158 0 30 2 50-4 42-6 74-14 62-32 106-26 52-48 94-30 48-50 94-26 50-36 98-11 30-11 62 0 9 1 18-4 20 2 38 2 68 32 140-138-92-262-290-130-188-206-424-80-221-80-413v-9zm166-300l10 6q2 14-2 38 4 90 32 206 42 132 126 278-14-78-16-146 0-50 6-92 20-112 68-190 50-82 118-126 70-46 142-46l4-2q76 2 144 34 66 38 118 102 48 68 86 150 34 86 60 188 82-62 132-158 44-88 54-186-2-10 0-26-4-78-30-164-40-90-106-168-74-70-184-122-118-42-256-50l-14 4h-19q-79 0-155 30-84 30-158 92-66 58-112 150-36 90-48 198z"/><glyph unicode="j" d="M-4 1604l4 4q0 100 72 174 74 72 174 72 102 0 174-72 72-74 72-171v-10q0-97-72-171-72-72-176-72-100 0-174 72-72 74-74 174zm8-1742l6 6v1288q0 20 14 36 16 14 34 14h368q18 0 34-14 14-16 14-38v-1288q0-20-16-36t-36-16h-366q-20 0-36 14-16 16-16 34zm658-10l10 10v1288q0 22 14 36 16 16 36 14l356 2q18-2 30-6 8-8 14-28 0-18 4-26l-2-14q2-10 2-22 134 128 357 128h15q246 0 390-126 140-126 144-378l-4-868q4-22-16-36-12-18-36-18h-370q-24 0-36 14-20 16-16 34l-4 788v16q0 88-40 136-34 48-140 48-128 0-184-76-50-76-54-212l4-700q-4-22-14-36-20-16-38-16h-370q-16 0-36 14-12 16-16 34z"/><glyph unicode="k" d="M122 534l22 16q0 290 190 506 210 234 530 236 136-2 250-42-44-94-54-174-92 36-198 38-220-2-382-166-158-170-160-404 2-152 72-284 76-132 196-202 82-48 176-64 86 30 154 96 70 60 116 140 46 72 84 172 34 90 56 186 18 84 32 188 12 94 16 174 4 70 4 148 0 68-2 106 0 26-2 50-104 298-284 602 10-12 26-20 16-18 60-66 42-54 78-114 34-66 70-170 32-112 46-232l-2-6 6-10q60-172 76-326 2-62 4-112-2-94-16-166-26-124-74-228-54-114-106-182-58-74-116-130-62-64-92-82-32-28-44-32l-2-4q148 4 266 70 126 74 196 202 74 136 74 284 0 124-44 228 84 18 168 68 54-132 54-294 0-292-202-514-202-218-520-220-316 0-520 220-202 220-202 514zm1100 738l10 12v6q0 38 18 88 18 54 64 100 4 6 20 18 12 10 70 40 52 24 126 44 2-2 18 4 4 0 44 18 24 12 60 36 22 18 64 64 28 36 58 92 0-14 18-30 4-22 36-80 16-64 38-124 0-56 10-126-10-20-2-34-12-100-34-188-12-10-6-16-14-14-20-40-26-32-34-54-26-30-46-56-40-34-62-50-58-32-100-36-13-4-20-4-4 0-6 2-8-1-16-1-43 0-78 19-78 20-132 86 6 4 44 26 16 10 98 66 60 42 126 96 44 40 102 112 36 56 52 116-14-12-8-18-16-16-24-40-32-38-44-62-36-34-66-68-52-44-86-70-56-38-108-62-76-34-136-44-16 0-12 20-20 6-20 56-19 25-19 56 0 13 3 26z"/><glyph unicode="l" d="M152 442l6 6q-6 10-6 20 0 12 4 24l314 554h-2l-196 346q-16 26-4 44t38 18h296q48 0 80-56 200-352 202-354l-320-564q-30-58-82-58h-292q-28 0-38 20zm648 190l6 4 658 1162q14 30 30 40 16 16 40 16h306q24 0 38-20 4-8 6-20-2-12-6-24l-656-1156v-2l416-762q12-24 0-46-14-18-38-18h-298q-48 0-82 56-416 768-420 770z"/><glyph unicode="m" d="M-2 212h2v144q0 118 84 202t202 84 202-84q82-82 82-202v-144h-572zm18 748l4 4q0 110 76 186t181 76h11q108 0 180-76 76-72 76-177v-21q0-101-76-176-74-76-188-78-106 2-186 76-74 80-78 186zm608-754l8 6-4 156q4 136 92 224 92 92 210 92h30q127 0 208-92 93-81 93-206 0-10-1-20l8-154zm32 842q-1 9-1 18 0 105 87 190 78 80 208 86 114-6 208-86 78-92 86-208-8-128-86-208-88-86-194-86h-30q-119 0-192 86-87 74-87 188 0 10 1 20zm668-842l8 186q-1 9-1 19 0 131 105 233 96 98 252 104 138-6 252-106 94-110 104-252l-10-186-704 6zm18 924h6q10 142 94 232 100 96 216 96h30q135 0 214-96 97-82 97-208 0-12-1-24 1-9 1-18 0-119-97-214-88-90-232-96-128 6-232 96-88 102-96 232z"/><glyph unicode="n" d="M-2 514h2v246h40v-246h-42zm100-84l2 2v388h40v-390h-42zm80-20h2v450h40v-450h-42zm80-20h2v450h40v-450h-42zm100-2l2 2v592h38v-594h-40zm78-2l2 2v674h40v-676h-42zm102 0v716h40v-716h-40zm80 0v736h40v-736h-40zm100 0v716h40v-716h-40zm80-2v696h40v-696h-40zm80-2v778h40v-778h-40zm100-2v840h40v-840h-40zm52 26l8 8v800q0 20 24 28 78 30 160 30 176 0 300-118 130-118 142-288 48 18 96 18 106 0 178-74 74-72 74-173v-10q0-101-74-175-72-74-178-74h-702q-8 2-20 8-6 10-8 20z"/><glyph unicode="o" d="M0 1296q0 32 16 62 26 50 80 64 192 60 434 78 130 12 260 12 118-2 236-10 256-18 508-88 254-70 446-184 48-30 62-84 4-16 4-34 0-34-18-66-30-48-84-62-18-6-34-6-34 0-66 18-222 132-538 192-258 52-506 52h-18q-15 1-29 1l-59-3q-296-8-522-78-20-4-40-6-32 2-62 16-48 28-66 78l2 10q-6 20-6 38zm92-514l8 12q-4 10-4 30 0 22 12 52 22 36 64 54 272 78 568 82 132-4 266-16 448-56 778-258 44-28 50-68 4-14 4-22v-6q0-34-18-58-24-44-70-50-14-6-26-4-30-4-58 16-290 176-690 224-124 12-242 14-264-2-502-72-16-6-32-6-26 0-52 12-42 22-56 64zm50-424l6 4q0 8-2 20 0 22 12 48 20 28 54 40 290 62 546 66 480-4 850-226 32-24 40-56 2-14 2-22 0-28-14-46-20-36-56-40-8-4-16-4h-12q-21 0-40 12-328 198-758 200-236-2-504-60-10-4-22-4-24-2-46 12-32 20-40 56z"/><glyph unicode="p" d="M-8 834l8 4q0-208 80-400 82-186 216-326 140-134 326-218 192-78 398-80 210 0 398 80 190 80 326 218 138 134 216 326 80 178 80 379v38q0 196-80 379-78 186-218 326-134 132-328 218-184 74-398 80-204-6-398-82-186-86-326-218-134-142-218-326-78-196-82-398zm226-18l12 10-4 12q4 92 24 196 12 24 16 60 66 164 188 302 136 122 300 192 136 36 266 46 206-10 378-96 184-106 288-262 56-90 86-178 16-46 18-62 24-91 24-179v-25q1-15 1-27 0-24-5-39 0-40-12-60-6-40-26-50-12-32-38-34-10-16-30-16-7 0-16 2 0-4-1.5-4t-4.5 4q-6-1-13-1-24 0-59 17-94 34-188 162-100 140-172 222-88 102-184 188-112 98-218 150-72 34-166 60-20 6-28 0v-18q4-8 2-18 4-14 2-18 12-102 12-186 0-142-32-240-36-116-124-194-90-84-170-84h-4l-8-2-36 6q-48 18-64 58-14 46-14 106z"/><glyph unicode="q" d="M-22 788l22 30q0 280 136 434t392 154q234 0 364-94 128-94 204-322l74-236q24-68 50-118 32-52 74-94 48-40 112-62 68-22 152-22 124 0 182 28 62 30 62 92 0 56-38 90-36 38-122 56l-160 38q-142 34-208 108-64 76-64 196 0 76 24 132 22 60 62 96 36 38 94 62 50 24 112 34 54 10 124 10 372 0 402-298l-238-28q-4 74-52 108-42 32-130 32-76 0-124-34-42-34-44-94 2-54 30-86 30-32 104-50l150-32q156-36 232-116 76-78 76-213v-7q2-324-488-324-116 0-212 22-94 20-160 56-64 34-116 90-46 52-80 112-28 52-54 130l-72 230q-22 62-36 98-20 44-44 82-30 46-60 66-34 30-80 40-39 17-84 17-12 0-24-1-12 2-23 2-35 0-63-14-42-6-78-42-40-24-66-74-28-38-44-112-16-54-16-132v-26q0-157 76-260 76-92 198-98 52 4 100 12 52 18 86 32 34 24 62 38 26 24 40 32l12 18 76-208q-6-2-16-14-10-4-46-30-36-18-78-38-42-12-110-30-68-10-142-14-248 4-380 140-132 146-132 406z"/><glyph unicode="r" d="M168 400l8 6q0 272 28 400 16 66 64 112 50 44 116 54 210 22 634 24 424-2 634-24 66-10 116-54 50-46 66-112 14-60 20-136 6-64 6-105v-19q2-48 2-140 0-274-30-400-16-70-66-114-50-46-118-52-218-26-634-26-414 0-634 22-66 8-116 52-50 46-66 112-30 132-30 400zm128 288l2 2h122v-654h102v654h122v102h-348v-104zm138 1162l4 4q14-34 74-214 20-56 40-138 22-78 28-102l2-322 100-2 2 324 148 452h-112l-84-302-76 300h-126zm222-1712l8 6q-1-15-1-28 0-38 9-56 10-42 62-42 46 0 112 68l-6-58 108-2-4 574h-100l-4-444q-26-48-60-48-16 0-22 24l2 6h-2l2 14q-2 12 0 20l-2 424-100 2zm182 1120l4 6-2 198q2 100 26 134 45 58 110 58h9q74 0 109-58 29-29 29-105 0-14-1-29l4-198q-4-98-30-134-46-60-118-60-74 0-114 56-26 30-26 110v22zm76-22l2 4q4-80 50-80 51 0 51 64 0 7-1 14l6 240q-6 78-50 78-53 0-53-66 0-7 1-14zm122-1232l6 10h76l4 52q56-62 112-62 58 0 82 62 6 32 8 112l-2 228v25q0 59-8 87-20 58-86 62-48-4-110-62v244l-82 4v-762zm78 108l2 4v340q28 28 52 26 48 0 48-78v-240q0-78-48-78-24 0-54 26zm72 1062l8 6q0-44 12-84 14-42 70-42 58 0 116 68l2-74 100-2 2 574h-104v-426q-30-48-66-48-16 0-20 22v4q2 8 2 14 2 12 0 18l2 412-124-2v-440zm198-1006l4 8q0-84 34-132 46-56 122-58 86 0 124 60 20 26 22 60l2 72h-102q1-17 1-30 0-26-3-34-6-40-48-40-52 0-54 80l2 106 202-2 2 114q-2 90-28 132-46 54-120 56-82-2-124-58-36-48-36-134v-200zm102 166v2h102v50q0 78-50 78-52 0-52-80v-50z"/><glyph unicode="s" d="M0 1248l298 266q202 174 302 182 14 2 28 0h5q96 0 159-72 74-80 100-256 62-380 80-468 72-312 150-314 68 2 192 202 132 206 138 308 4 22 2 34 2 140-129 140h-11q-9 1-18 1-61 0-132-35 147 482 545 482h7l24 2q296-12 298-368-2-22-2-42-14-300-418-820-418-544-706-544-180 0-304 330l-166 606q-92 330-196 330-22 0-162-98z"/><glyph unicode="t" d="M284 102l10 14 88-86v4l176 844-176-850 222 22 126 684 36 26 4-2-2 4 4 22v16l26 198-26-198-4-46-4 4-38-28-126-682-8-50 108-42h24l2 8 2-26 172-66 4-10 354 68 4 10v10l60-16-6 10v-8l182 40v32l-6 4 66-20 70 20 6 10-10 4 118 12-162 748-54 12-80-18-10 104-138 60-34 412 56 78-264 164-24 314 2-12-32-264 28-24-30 24-10-2-8 10-200-284 42-30-18-228-50 16-20-54-42-208-134 22-64-40-16-116-40-14zm512 764l14 14 124 106 12-30zm14 128l14 6 112 110 14-10-14-12-110-110zm10 92l14 2-10 24 128 102-12-14zm8-420l14 22-10 8 6-40zm8 544l118 104-10-18-102-120zm10 96l8-8-4 30 106 86-8-12-94-106zm86-662l16 172-10-182zm10 208l6 2v6-8l6 2 6-8-2 6-4-4-2 6-2-4-6 6v-6 6zm4 6v2l4-8zm106 66v92l58-18 2-102zm2-108v70l60-18v-118l-12 12v30zm0 242v92l54-22 4-98zm0 122v70l50-20 4-82zm0 202v72l44-22 2-78zm2-96l2 66 46-22 2-72zm76 40l2 82 40-28 6-70zm2-98l4 76 40-30 8-62zm2-104l4 82 40-32 12-64zm2-120l6 102 40-32 14-82zm4-130v106l48-32 8-82zm2-136l2 118 44-24 10-76-20-16 4-6z"/><glyph unicode="u" d="M104 1600l20 12q32-252 86-478 52-222 112-386 58-160 130-300 68-138 132-228 58-88 126-160 60-68 104-104 36-32 74-54 46-28 102-30 42 0 96 26 26 18 84 64 44 42 118 114 58 70 132 152 58 84 134 188 58 106 116 208 116 0 246 28l-10 244q-82-18-152-18-190 0-330 132-118 134-128 360 8 114 38 172 45 60 100 60h9q64 0 93-54 37-47 37-136 0-13-1-26 1-11 1-23 0-87-39-205 6 0 2-4 8-2 10-12 12-8 16-18 12-6 24-20 16-10 30-20 20-6 38-16 28-6 48-12 30-2 58-2 36 2 66 6 70 150 70 324v50q0 224-116 344-110 130-329 130h-15q-137 0-250-70-102-68-164-192-50-118-56-274 4-226 100-412 104-180 274-270-142-290-354-500-74 96-138 184-58 92-126 218-62 128-114 268-44 140-90 330-38 190-68 410h-346z"/><glyph unicode="v" d="M0 896q0-192 136-328t328-136 328 136 136 328-136 328-328 136-328-136-136-328zm1120 0q0-192 136-328t328-136 328 136 136 328-136 328-328 136-328-136-136-328z"/><glyph unicode="w" d="M-20 682l20 28q2-88 46-158 44-72 132-108 74-32 170-32h18q172 4 274 140 14 28 40 60h2q-4-2 2-8-2-4 2-6 70-146 216-174 38-10 84-10 104 0 202 66 22 22 94 82l14 22 4-4 18 28q28 20 20 22l24-26q92-90 114-108 100-82 216-82h6q18-2 22 0 192 8 264 164 47 79 47 164 0 10-1 20 1 10 1 20 0 71-37 150-26 66-92 114-54 40-124 56-32 2-78 6-22-4-56-4-96-18-184-92-4-14-114-120l-6-14q-14 12-48 50l-62 62q-98 94-220 106-32 8-50 2-11 1-22 1-70 0-122-35-94-38-136-140l-20-22q-66 128-202 158h-12q-24 0-54 6-100-8-182-70 4-2-2 10 10 12 16 86 18 56 18 100 8 8 20 16l380-8-4 166-528-8-98-518q67-5 102-5 26 0 34 3 10-2 18-2 27 0 36 24 8 0 28 24 46 24 94 30 20-6 32-4 74-18 108-68 30-47 30-95v-11q4-16 0-18-2-76-48-118-40-53-103-53-7 0-13 1-20-6-52 6-74 14-102 114l-4 20zm822 52q8 2 0 14l10 4q4 14 4 38 18 46 48 80 44 24 84 32 38-6 56-8 58-20 98-56l106-98v-18q-16 0-30-28-34-20-34-34-20-4-30-24-30-12-38-26-66-28-114-32l-14 4h-9q-53 0-101 46-28 38-36 106zm630-6l4 4 96 102q70 52 132 62 10-4 8 0 14-2 8 0 68-2 100-36 48-38 48-98 5-10 5-19 0-7-3-13 2-9 2-17 0-13-6-23-4-56-48-84-30-30-90-30l2-2q-86 0-144 52-8 0-114 102z"/><glyph unicode="x" d="M-8 106l8 6v-40q12-84 76-144 68-56 152-58l1582 2q8-2 28 2 84 8 146 76 54 62 58 152l-4 1578 4 12q-4 6-2 8-12 88-78 152-70 56-160 60l-1574-4q-20 4-42-4-84-12-140-82-52-60-54-154l2-780q-1-67-1-165t1-227q-2-264-2-390zm216 70l8 2v874l186-4q-20-78-20-162 0-150 72-294 84-156 240-252 146-80 314-84 10 4 20 0 180 10 330 104 164 114 238 300 38 110 40 220-2 84-20 164l168 4 2-20q-1-46-1-109 0-125 3-317 0-282 2-428-2-32-22-58-24-20-58-24l-1418 4q-5-1-9-1-29 0-51 23-22 20-24 58zm402 702l2 2v5q0 160 116 273 112 116 278 116 158 0 278-114 108-116 114-280-6-164-116-278-120-116-278-116-170 0-278 114-116 111-116 263v15zm780 470l2 4 6 234q-6 34 22 56 18 22 56 22h230q34 0 56-24 22-22 22-56v-234q0-34-24-58-22-22-56-22h-234q-34 0-58 22-22 22-22 56z"/><glyph unicode="y" d="M-4 892l4 4q0-208 80-398 82-188 218-326 138-138 326-218 190-82 398-82t398 80q188 82 326 218 136 138 218 326 80 190 80 398t-80 398q-82 188-220 326-136 136-326 218-190 80-398 80t-398-80q-188-82-326-220-138-136-218-326-82-190-82-398zm100-2l2 2q0 194 78 374l440-1204q-236 112-376 336-144 220-144 492zm132 494l18 8q126 194 328 302 199 112 432 112h8q174 0 336-64 156-64 286-178h-12q-70 0-110-48-46-48-46-111v-5q-2-12 0-24 0-12 4-26 2-12 6-22 0-8 10-24 6-16 10-22 0-6 14-26 6-18 14-22-4-4 14-26 8-20 14-24 72-132 76-254-4-12-2-24-4-14-4-24-2-10-4-28-4-16-4-26-4-8-8-28-8-20-8-30-4-8-10-32-8-24-10-32-4-8-12-36-10-28-10-36l-94-308-330 990 102 8q26 2 32 22 10 18-2 38-10 14-36 16-128-12-219-12h-25q-13-1-28-1-31 0-74 3-58 0-100 4l-38 2q-26 0-36-16-12-20-4-38 6-22 30-22 44-6 94-8l142-394-200-604-338 996 106 10q22 0 30 22 6 16-4 38-12 12-34 16-122-13-206-13-21 0-40 1-38-4-58 0zm504-1394l2 2 278 806 280-780q4 0 2-6 6-2 4-6-148-50-306-52-126 0-260 36zm722 82l2 6 280 810q70 176 70 328 0 56-6 94 112-200 112-442 0-244-126-462-124-206-332-334z"/><glyph unicode="z" d="M380 1074l12 6h226v-720q0-142 28-214 30-72 104-138 76-66 182-102 110-36 246-36 128 0 228 24 108 26 236 86l4 324q-160-102-310-102-92 0-156 40-54 30-70 80-20 46-20 199v29l-2 524h486v320h-486v518h-292q-20-158-72-260-52-104-138-176-84-72-206-112v-290z"/><glyph horiz-adv-x="1024" d="M0 0z"/><glyph horiz-adv-x="960"/><glyph horiz-adv-x="1920"/><glyph horiz-adv-x="960"/><glyph horiz-adv-x="1920"/><glyph horiz-adv-x="640"/><glyph horiz-adv-x="480"/><glyph horiz-adv-x="320"/><glyph horiz-adv-x="320"/><glyph horiz-adv-x="240"/><glyph horiz-adv-x="384"/><glyph horiz-adv-x="106"/><glyph horiz-adv-x="384"/><glyph horiz-adv-x="480"/><glyph unicode="◼" horiz-adv-x="1910" d="M0 0v1910h1910v-1910h-1910z"/></font>
</defs>
</svg>
